name rise30.8019peak61.5557fall86.2505.mot
datacolumns 19
datarows 30
range 19.01826000000000 19.06659500000000
endheader
time	ground_force1_vx	ground_force1_vy	ground_force1_vz	ground_force1_px	ground_force1_py	ground_force1_pz	ground_force2_vx	ground_force2_vy	ground_force2_vz	ground_force2_px	ground_force2_py	ground_force2_pz	ground_torque1_x	ground_torque1_y	ground_torque1_z	ground_torque2_x	ground_torque2_y	ground_torque2_z	
19.01826000000000	-15.56015200000000	691.01608099999999	30.70203800000000	0.09988100000000	0.00000000000000	0.10298600000000	0.00000000000000	0.00000000000000	0.00000000000000	0.00000000000000	0.00000000000000	0.00000000000000	0.00000000000000	10.91504600000000	0.00000000000000	0.00000000000000	0.00000000000000	0.00000000000000	
19.01992900000000	-16.09744900000000	691.49497699999995	30.71979200000000	0.09887000000000	0.00000000000000	0.10299700000000	0.00000000000000	0.00000000000000	0.00000000000000	0.00000000000000	0.00000000000000	0.00000000000000	0.00000000000000	10.99096300000000	0.00000000000000	0.00000000000000	0.00000000000000	0.00000000000000	
19.02160100000000	-16.63676700000000	691.96534899999995	30.73722000000000	0.09786400000000	0.00000000000000	0.10300800000000	0.00000000000000	0.00000000000000	0.00000000000000	0.00000000000000	0.00000000000000	0.00000000000000	0.00000000000000	11.06740700000000	0.00000000000000	0.00000000000000	0.00000000000000	0.00000000000000	
19.02326700000000	-17.17780500000000	692.42808500000001	30.75455500000000	0.09686200000000	0.00000000000000	0.10302100000000	0.00000000000000	0.00000000000000	0.00000000000000	0.00000000000000	0.00000000000000	0.00000000000000	0.00000000000000	11.14440100000000	0.00000000000000	0.00000000000000	0.00000000000000	0.00000000000000	
19.02493200000000	-17.72026700000000	692.88416700000005	30.77203900000000	0.09586600000000	0.00000000000000	0.10303400000000	0.00000000000000	0.00000000000000	0.00000000000000	0.00000000000000	0.00000000000000	0.00000000000000	0.00000000000000	11.22196500000000	0.00000000000000	0.00000000000000	0.00000000000000	0.00000000000000	
19.02659700000000	-18.26386500000000	693.33466599999997	30.78991400000000	0.09487500000000	0.00000000000000	0.10304800000000	0.00000000000000	0.00000000000000	0.00000000000000	0.00000000000000	0.00000000000000	0.00000000000000	0.00000000000000	11.30012700000000	0.00000000000000	0.00000000000000	0.00000000000000	0.00000000000000	
19.02826400000000	-18.80831500000000	693.78074100000003	30.80843000000000	0.09388800000000	0.00000000000000	0.10306200000000	0.00000000000000	0.00000000000000	0.00000000000000	0.00000000000000	0.00000000000000	0.00000000000000	0.00000000000000	11.37891200000000	0.00000000000000	0.00000000000000	0.00000000000000	0.00000000000000	
19.02993000000000	-19.35334600000000	694.22363399999995	30.82783600000000	0.09290700000000	0.00000000000000	0.10307800000000	0.00000000000000	0.00000000000000	0.00000000000000	0.00000000000000	0.00000000000000	0.00000000000000	0.00000000000000	11.45834800000000	0.00000000000000	0.00000000000000	0.00000000000000	0.00000000000000	
19.03160000000000	-19.89869100000000	694.66466100000002	30.84838100000000	0.09193100000000	0.00000000000000	0.10309400000000	0.00000000000000	0.00000000000000	0.00000000000000	0.00000000000000	0.00000000000000	0.00000000000000	0.00000000000000	11.53846300000000	0.00000000000000	0.00000000000000	0.00000000000000	0.00000000000000	
19.03326200000000	-20.44409400000000	695.10520799999995	30.87031200000000	0.09096000000000	0.00000000000000	0.10311200000000	0.00000000000000	0.00000000000000	0.00000000000000	0.00000000000000	0.00000000000000	0.00000000000000	0.00000000000000	11.61928600000000	0.00000000000000	0.00000000000000	0.00000000000000	0.00000000000000	
19.03492900000000	-20.98930900000000	695.54672800000003	30.89387400000000	0.08999500000000	0.00000000000000	0.10313000000000	0.00000000000000	0.00000000000000	0.00000000000000	0.00000000000000	0.00000000000000	0.00000000000000	0.00000000000000	11.70084500000000	0.00000000000000	0.00000000000000	0.00000000000000	0.00000000000000	
19.03660000000000	-21.53409900000000	695.99073099999998	30.91930700000000	0.08903400000000	0.00000000000000	0.10315000000000	0.00000000000000	0.00000000000000	0.00000000000000	0.00000000000000	0.00000000000000	0.00000000000000	0.00000000000000	11.78316900000000	0.00000000000000	0.00000000000000	0.00000000000000	0.00000000000000	
19.03826200000000	-22.07823700000000	696.43877899999995	30.94684600000000	0.08807900000000	0.00000000000000	0.10317000000000	0.00000000000000	0.00000000000000	0.00000000000000	0.00000000000000	0.00000000000000	0.00000000000000	0.00000000000000	11.86628400000000	0.00000000000000	0.00000000000000	0.00000000000000	0.00000000000000	
19.03993000000000	-22.62150400000000	696.89248099999998	30.97671700000000	0.08712900000000	0.00000000000000	0.10319200000000	0.00000000000000	0.00000000000000	0.00000000000000	0.00000000000000	0.00000000000000	0.00000000000000	0.00000000000000	11.95021500000000	0.00000000000000	0.00000000000000	0.00000000000000	0.00000000000000	
19.04160000000000	-23.16369400000000	697.35348599999998	31.00914000000000	0.08618400000000	0.00000000000000	0.10321500000000	0.00000000000000	0.00000000000000	0.00000000000000	0.00000000000000	0.00000000000000	0.00000000000000	0.00000000000000	12.03498600000000	0.00000000000000	0.00000000000000	0.00000000000000	0.00000000000000	
19.04326000000000	-23.70460700000000	697.82347200000004	31.04432700000000	0.08524400000000	0.00000000000000	0.10323900000000	0.00000000000000	0.00000000000000	0.00000000000000	0.00000000000000	0.00000000000000	0.00000000000000	0.00000000000000	12.12061900000000	0.00000000000000	0.00000000000000	0.00000000000000	0.00000000000000	
19.04493500000000	-24.24405500000000	698.30414599999995	31.08247800000000	0.08430900000000	0.00000000000000	0.10326400000000	0.00000000000000	0.00000000000000	0.00000000000000	0.00000000000000	0.00000000000000	0.00000000000000	0.00000000000000	12.20713300000000	0.00000000000000	0.00000000000000	0.00000000000000	0.00000000000000	
19.04659300000000	-24.78185700000000	698.79723000000001	31.12378500000000	0.08337900000000	0.00000000000000	0.10329000000000	0.00000000000000	0.00000000000000	0.00000000000000	0.00000000000000	0.00000000000000	0.00000000000000	0.00000000000000	12.29454200000000	0.00000000000000	0.00000000000000	0.00000000000000	0.00000000000000	
19.04826000000000	-25.31784100000000	699.30445899999995	31.16842700000000	0.08245500000000	0.00000000000000	0.10331700000000	0.00000000000000	0.00000000000000	0.00000000000000	0.00000000000000	0.00000000000000	0.00000000000000	0.00000000000000	12.38285900000000	0.00000000000000	0.00000000000000	0.00000000000000	0.00000000000000	
19.04993400000000	-25.85184300000000	699.82757100000003	31.21657200000000	0.08153500000000	0.00000000000000	0.10334500000000	0.00000000000000	0.00000000000000	0.00000000000000	0.00000000000000	0.00000000000000	0.00000000000000	0.00000000000000	12.47209400000000	0.00000000000000	0.00000000000000	0.00000000000000	0.00000000000000	
19.05159600000000	-26.38370600000000	700.36829899999998	31.26837900000000	0.08062100000000	0.00000000000000	0.10337500000000	0.00000000000000	0.00000000000000	0.00000000000000	0.00000000000000	0.00000000000000	0.00000000000000	0.00000000000000	12.56224900000000	0.00000000000000	0.00000000000000	0.00000000000000	0.00000000000000	
19.05326700000000	-26.91328100000000	700.92836399999999	31.32399000000000	0.07971200000000	0.00000000000000	0.10340500000000	0.00000000000000	0.00000000000000	0.00000000000000	0.00000000000000	0.00000000000000	0.00000000000000	0.00000000000000	12.65332600000000	0.00000000000000	0.00000000000000	0.00000000000000	0.00000000000000	
19.05492700000000	-27.44042200000000	701.50947199999996	31.38353900000000	0.07880800000000	0.00000000000000	0.10343700000000	0.00000000000000	0.00000000000000	0.00000000000000	0.00000000000000	0.00000000000000	0.00000000000000	0.00000000000000	12.74531800000000	0.00000000000000	0.00000000000000	0.00000000000000	0.00000000000000	
19.05659400000000	-27.96499000000000	702.11329699999999	31.44714500000000	0.07791000000000	0.00000000000000	0.10347000000000	0.00000000000000	0.00000000000000	0.00000000000000	0.00000000000000	0.00000000000000	0.00000000000000	0.00000000000000	12.83821800000000	0.00000000000000	0.00000000000000	0.00000000000000	0.00000000000000	
19.05826800000000	-28.48685100000000	702.74148200000002	31.51491600000000	0.07701600000000	0.00000000000000	0.10350400000000	0.00000000000000	0.00000000000000	0.00000000000000	0.00000000000000	0.00000000000000	0.00000000000000	0.00000000000000	12.93200800000000	0.00000000000000	0.00000000000000	0.00000000000000	0.00000000000000	
19.05993900000000	-29.00587400000000	703.39562899999999	31.58694700000000	0.07612900000000	0.00000000000000	0.10353800000000	0.00000000000000	0.00000000000000	0.00000000000000	0.00000000000000	0.00000000000000	0.00000000000000	0.00000000000000	13.02667000000000	0.00000000000000	0.00000000000000	0.00000000000000	0.00000000000000	
19.06159600000000	-29.52192900000000	704.07728999999995	31.66332000000000	0.07524700000000	0.00000000000000	0.10357400000000	0.00000000000000	0.00000000000000	0.00000000000000	0.00000000000000	0.00000000000000	0.00000000000000	0.00000000000000	13.12217600000000	0.00000000000000	0.00000000000000	0.00000000000000	0.00000000000000	
19.06326700000000	-30.03488900000000	704.78795900000000	31.74410800000000	0.07437000000000	0.00000000000000	0.10361100000000	0.00000000000000	0.00000000000000	0.00000000000000	0.00000000000000	0.00000000000000	0.00000000000000	0.00000000000000	13.21849300000000	0.00000000000000	0.00000000000000	0.00000000000000	0.00000000000000	
19.06493000000000	-30.54462900000000	705.52907000000005	31.82936800000000	0.07349900000000	0.00000000000000	0.10364800000000	0.00000000000000	0.00000000000000	0.00000000000000	0.00000000000000	0.00000000000000	0.00000000000000	0.00000000000000	13.31558400000000	0.00000000000000	0.00000000000000	0.00000000000000	0.00000000000000	
19.06659500000000	-31.05102100000000	706.30198399999995	31.91915100000000	0.07263500000000	0.00000000000000	0.10368700000000	0.00000000000000	0.00000000000000	0.00000000000000	0.00000000000000	0.00000000000000	0.00000000000000	0.00000000000000	13.41340300000000	0.00000000000000	0.00000000000000	0.00000000000000	0.00000000000000	
